<?xml version="1.0" encoding="UTF-8" standalone="no"?>
<svg width="300px" height="300px" viewBox="0 0 300 300" version="1.1" xmlns="http://www.w3.org/2000/svg" xmlns:xlink="http://www.w3.org/1999/xlink">
    <defs></defs>
    <g id="Page-1" stroke="none" stroke-width="1" fill="none" fill-rule="evenodd">
        <path d="M300,300 C300,300 300,279.375 298.28125,268.59375 C296.875,260.078125 285.078125,248.828125 234.921875,230.390625 C185.546875,212.265625 188.59375,221.09375 188.59375,187.734375 C188.59375,166.09375 199.609375,178.671875 206.640625,137.578125 C209.375,121.40625 211.5625,132.1875 217.5,106.25 C220.625,92.65625 215.390625,91.640625 216.015625,85.15625 C216.640625,78.671875 217.265625,72.890625 218.4375,59.609375 C219.84375,43.203125 204.609375,0 150,0 C95.390625,0 80.15625,43.203125 81.640625,59.6875 C82.8125,72.890625 83.4375,78.75 84.0625,85.234375 C84.6875,91.71875 79.453125,92.734375 82.578125,106.328125 C88.515625,132.1875 90.703125,121.40625 93.4375,137.65625 C100.46875,178.75 111.484375,166.171875 111.484375,187.8125 C111.484375,221.25 114.53125,212.421875 65.15625,230.46875 C15,248.828125 3.125,260.15625 1.796875,268.671875 C0,279.375 0,300 0,300 L150,300 L300,300 L300,300 Z" id="borrower" fill="#CCCCCC"></path>
    </g>
</svg>