<?xml version="1.0" encoding="UTF-8" standalone="no"?>
<svg width="300px" height="300px" viewBox="0 0 300 300" version="1.1" xmlns="http://www.w3.org/2000/svg" xmlns:xlink="http://www.w3.org/1999/xlink">
    <defs></defs>
    <g id="Page-1" stroke="none" stroke-width="1" fill="none" fill-rule="evenodd">
        <path d="M32.8510771,225.468439 L267.143328,225.468439 C276.404862,225.468439 283.878887,217.969639 283.878887,208.727452 L283.878887,41.3175898 C283.878887,28.9909491 273.896763,19 261.579704,19 L38.425873,19 C26.1032279,19 16.1211033,28.9909491 16.1211033,41.3175898 L16.1211033,208.727452 C16.1211033,217.969639 23.6174722,225.468439 32.8510771,225.468439 L32.8510771,225.468439 Z M44.0509427,46.9388956 L255.949048,46.9388956 L255.949048,197.529543 L44.0509427,197.529543 L44.0509427,46.9388956 Z M294.419609,235.727601 L5.58596787,235.727601 C2.49692764,235.727601 0,238.225338 0,241.31538 L0,261.995751 C0,273.053966 11.2222095,282 25.0586519,282 L274.941339,282 C288.777781,282 299.999991,273.048378 299.999991,261.995751 L299.999991,241.31538 C300.005577,238.225338 297.503063,235.727601 294.419609,235.727601 Z M184.845263,264.454374 L115.149142,264.454374 C112.065687,264.454374 109.563174,261.956636 109.563174,258.866594 C109.563174,255.776553 112.065687,253.278815 115.149142,253.278815 L184.845263,253.278815 C187.934303,253.278815 190.431231,255.776553 190.431231,258.866594 C190.431231,261.956636 187.934303,264.454374 184.845263,264.454374 L184.845263,264.454374 Z" id="item" fill="#CCCCCC"></path>
    </g>
</svg>